# xmcd
#
# Track frame offsets:
#	150
#	19378
#	30914
#	42615
#	79351
#	94219
#	105962
#	117854
#	140164
#	155765
#
# Disc length: 2387 seconds
#
# Revision: 1
# Processed by: cddbd v1.5.2PL0 Copyright (c) Steve Scherf et al.
# Submitted via: audiograbber 1.83.01
#
DISCID=8309510a
DTITLE=The Charming Snakes - Ammunition
DYEAR=1900
DGENRE=punk
TTITLE0=Loon
TTITLE1=Ammunition
TTITLE2=Tracks That Lead
TTITLE3=Epic Jams
TTITLE4=Love Life
TTITLE5=See You In The Alps
TTITLE6=Desire
TTITLE7=Teenage Kut Out
TTITLE8=Saccharine Trust
TTITLE9=All Great Things
EXTD=
EXTT0=
EXTT1=
EXTT2=
EXTT3=
EXTT4=
EXTT5=
EXTT6=
EXTT7=
EXTT8=
EXTT9=
PLAYORDER=
